<?xml version="1.0" encoding="UTF-8"?>
<svg version="1.1" xmlns="http://www.w3.org/2000/svg" width="500" height="500">
<path d="M0 0 C165 0 330 0 500 0 C500 165 500 330 500 500 C335 500 170 500 0 500 C0 335 0 170 0 0 Z " fill="#FEFEFE" transform="translate(0,0)"/>
<path d="M0 0 C14.58646617 0 14.58646617 0 20 5 C25.1564683 10.65922396 26.1351188 15.57088382 26.09765625 23.17578125 C26.09282227 24.91118164 26.09282227 24.91118164 26.08789062 26.68164062 C26.07532227 28.47891602 26.07532227 28.47891602 26.0625 30.3125 C26.05798828 31.53001953 26.05347656 32.74753906 26.04882812 34.00195312 C26.03706578 37.00135226 26.02062826 40.00065089 26 43 C27.37906352 42.99308655 27.37906352 42.99308655 28.7859869 42.98603344 C51.17091767 42.87554424 73.55580134 42.79283847 95.94094753 42.74093914 C106.76631408 42.71517298 117.59149844 42.68005268 128.41674805 42.62280273 C137.8535905 42.57291931 147.29030098 42.54069744 156.72727162 42.52955753 C161.72273508 42.52304717 166.71782106 42.5077789 171.71316338 42.47134972 C176.41883931 42.43731227 181.12398369 42.42696268 185.82977104 42.43446159 C187.55306897 42.43309051 189.2763854 42.42320418 190.99957657 42.40397263 C208.06265375 42.22294558 208.06265375 42.22294558 215 48 C221.57119401 54.90817832 221 58.69177036 221 69 C156.32 69 91.64 69 25 69 C25.12375 90.924375 25.2475 112.84875 25.375 135.4375 C25.40899902 142.35130615 25.44299805 149.2651123 25.47802734 156.38842773 C25.51795174 162.60469162 25.51795174 162.60469162 25.56045532 168.82093811 C25.57810085 171.58225155 25.59265124 174.34341519 25.60269165 177.10475159 C25.6157081 180.63493693 25.63816033 184.16494771 25.66723371 187.69503605 C25.68054616 189.5911506 25.68436681 191.48732465 25.6877346 193.38348293 C25.80632107 205.48012288 27.76216234 217.14716426 36.21875 226.4375 C38.41435802 228.4281846 40.59730703 230.26588246 43 232 C43.68964844 232.50402344 44.37929687 233.00804687 45.08984375 233.52734375 C55.19323193 238.64006502 65.8766636 238.47041582 76.91796875 238.51171875 C78.62861901 238.52859528 80.3392571 238.54674944 82.04988098 238.56611633 C86.51641025 238.61330002 90.98289013 238.64331281 95.44958496 238.66955566 C100.02182768 238.69952221 104.59390073 238.74599658 109.16601562 238.79101562 C118.11058774 238.87668807 127.05519512 238.94419227 136 239 C136.02883129 240.75380896 136.04936079 242.50775565 136.06640625 244.26171875 C136.08489624 245.72677856 136.08489624 245.72677856 136.10375977 247.22143555 C135.92921058 251.89565742 134.627527 255.2639712 131.41796875 258.6875 C126.22316575 263.3956439 121.80599412 265.24120574 114.71948242 265.29052734 C113.47015427 265.30328705 112.22082611 265.31604675 110.93363953 265.32919312 C109.57425085 265.332254 108.21486009 265.33448003 106.85546875 265.3359375 C105.44362762 265.34237627 104.03178778 265.3491054 102.61994934 265.35610962 C99.6568392 265.36807599 96.69384548 265.37179187 93.73071289 265.37060547 C89.98011848 265.37040404 86.23029694 265.39752341 82.47988415 265.43214989 C79.55828108 265.45469127 76.63685473 265.45843459 73.71517372 265.45738602 C72.335619 265.45970836 70.95605675 265.46833568 69.57658958 265.48405075 C49.79404898 265.68803667 32.74696929 260.06828 18.20410156 246.48999023 C10.02294546 238.34899214 4.00927848 228.14836329 1 217 C0.48870041 215.1124575 0.48870041 215.1124575 -0.03292847 213.18678284 C-1.41110723 206.89323723 -1.26344837 200.63388682 -1.22705078 194.21850586 C-1.22648562 192.84773771 -1.22680527 191.47696897 -1.22793579 190.10620117 C-1.22850623 186.41051702 -1.21680239 182.71496447 -1.20278788 179.01931071 C-1.19022861 175.14761074 -1.18910594 171.27590727 -1.18673706 167.40419006 C-1.18053749 160.08398047 -1.16414743 152.76383108 -1.14403808 145.44364792 C-1.1216315 137.1050332 -1.11067371 128.76641549 -1.10064721 120.42777812 C-1.07977974 103.28515067 -1.04463359 86.14258172 -1 69 C-1.80630859 69.02618408 -2.61261719 69.05236816 -3.44335938 69.0793457 C-7.12870472 69.18386261 -10.81373738 69.24850239 -14.5 69.3125 C-15.7684375 69.35439453 -17.036875 69.39628906 -18.34375 69.43945312 C-25.87743129 69.53754793 -31.26640131 69.18434077 -37 64 C-39.09375 61.7109375 -39.09375 61.7109375 -40.5 59.375 C-40.9846875 58.61960938 -41.469375 57.86421875 -41.96875 57.0859375 C-43 54 -43 54 -43 43 C-28.81 43 -14.62 43 0 43 C0 28.81 0 14.62 0 0 Z " fill="#020202" transform="translate(85,107)"/>
<path d="M0 0 C1.38735352 -0.01160156 1.38735352 -0.01160156 2.80273438 -0.0234375 C21.81792203 0.02986366 37.46879 7.7702511 50.9375 20.8984375 C64.96892438 35.36620496 69.50995989 53.04368629 69.5715332 72.69555664 C69.1304692 91.54666393 60.33160067 107.18822903 47.0625 120.25 C44.51819256 122.47129966 41.88411632 124.39715626 39.0625 126.25 C38.30324219 126.76304687 37.54398437 127.27609375 36.76171875 127.8046875 C21.48994097 137.59616225 2.90629223 139.32797287 -14.7890625 136.671875 C-31.74381533 132.38446624 -48.61960593 121.47802676 -57.7734375 106.35546875 C-58.15757812 105.66066406 -58.54171875 104.96585937 -58.9375 104.25 C-59.30101562 103.60675781 -59.66453125 102.96351563 -60.0390625 102.30078125 C-68.29827258 86.75959587 -70.97290158 68.02283626 -67.1015625 50.7265625 C-62.22463092 35.11383523 -51.91723732 20.01088659 -37.9375 11.25 C-37.28265625 10.8065625 -36.6278125 10.363125 -35.953125 9.90625 C-24.76356363 2.57857264 -13.24364273 -0.1102871 0 0 Z " fill="#020202" transform="translate(192.9375,189.75)"/>
<path d="M0 0 C3.35480749 3.35480749 2.36892933 7.82199691 2.375 12.375 C2.39949219 13.3340625 2.42398438 14.293125 2.44921875 15.28125 C2.47846655 22.28122255 2.47846655 22.28122255 0.265625 25.60546875 C-2.16974292 27.10447969 -3.79989139 27.60161575 -6.625 27.9375 C-15.7997566 29.50260554 -23.78682953 34.05667868 -30 41 C-33.82237725 46.55244599 -33.82237725 46.55244599 -35 53 C-34.04633545 53.01458252 -33.0926709 53.02916504 -32.11010742 53.04418945 C-28.57066415 53.10217792 -25.03185676 53.17940958 -21.49291992 53.26245117 C-19.96144941 53.29569818 -18.42985644 53.32373093 -16.89819336 53.34643555 C-14.69592113 53.37998718 -12.49477088 53.4322991 -10.29296875 53.48828125 C-9.60849167 53.49467117 -8.92401459 53.5010611 -8.21879578 53.50764465 C-5.43890398 53.59356346 -3.43257119 53.72131436 -1.06469727 55.24682617 C0.30005701 57.49408607 0.35864711 58.9397035 0.328125 61.5625 C0.32296875 62.44164062 0.3178125 63.32078125 0.3125 64.2265625 C0.291875 65.14179688 0.27125 66.05703125 0.25 67 C0.24484375 67.91523438 0.2396875 68.83046875 0.234375 69.7734375 C0.15506269 76.53481193 0.15506269 76.53481193 -1 80 C-3.9528472 81.4764236 -6.68448983 81.22272939 -9.9765625 81.31640625 C-10.66181 81.33718735 -11.3470575 81.35796844 -12.05307007 81.37937927 C-14.24361069 81.44480185 -16.43427189 81.50372554 -18.625 81.5625 C-20.1093875 81.60569218 -21.59376278 81.6493067 -23.078125 81.69335938 C-26.71862084 81.80047553 -30.35925251 81.90176362 -34 82 C-34.98710057 85.08042898 -34.98710057 85.08042898 -34.06640625 88.11328125 C-26.76199474 98.7947973 -17.88997563 105.54700487 -5 108.125 C-4.29875 108.23070312 -3.5975 108.33640625 -2.875 108.4453125 C-0.45133041 109.16231475 0.43459569 110.01748084 2 112 C2.37231445 114.32836914 2.37231445 114.32836914 2.36328125 117.03515625 C2.36231445 118.49598633 2.36231445 118.49598633 2.36132812 119.98632812 C2.34521484 121.00146484 2.32910156 122.01660156 2.3125 123.0625 C2.31572266 124.08150391 2.31894531 125.10050781 2.32226562 126.15039062 C2.26699141 133.73300859 2.26699141 133.73300859 0 136 C-7.27595201 137.09637633 -14.15193959 135.32026189 -21 133 C-22.45599609 132.50693359 -22.45599609 132.50693359 -23.94140625 132.00390625 C-41.51481825 125.38237291 -54.52139148 111.7286712 -62.23828125 94.85888672 C-63.78779299 91.0774821 -64.72285991 87.19109314 -65.52734375 83.1953125 C-65.78496182 81.03422651 -65.78496182 81.03422651 -67 80 C-68.79732035 60.75751646 -65.87424061 40.77925575 -53.1953125 25.48046875 C-39.60208778 9.96446046 -21.51510441 -2.40794046 0 0 Z " fill="#020202" transform="translate(456,191)"/>
<path d="M0 0 C8.1865811 6.47471591 15.21264566 16.48615094 17 27 C18.0714886 39.48899012 15.64972282 50.66201222 7.9765625 60.71875 C1.37812281 68.33434047 -6.07664139 74.04339865 -15.875 76.8125 C-17.421875 76.9053125 -17.421875 76.9053125 -19 77 C-19.84949219 77.061875 -20.69898438 77.12375 -21.57421875 77.1875 C-34.74719159 77.73852631 -45.11593058 73.61395836 -55 65 C-63.43641448 57.10093676 -67.86336133 46.23359552 -68.375 34.8125 C-68.0943235 22.16451504 -62.89563742 11.4579572 -53.875 2.8125 C-38.01850964 -10.64801813 -17.14719889 -11.96386284 0 0 Z " fill="#FDFDFD" transform="translate(219,224)"/>
<path d="M0 0 C1.97226562 0.00966797 1.97226562 0.00966797 3.984375 0.01953125 C7.25 0.1875 7.25 0.1875 9.25 1.1875 C9.25 8.7775 9.25 16.3675 9.25 24.1875 C5.95 24.8475 2.65 25.5075 -0.75 26.1875 C-4.40511871 29.00498734 -6.64877152 31.67246322 -7.75 36.1875 C-6.86525993 45.26240528 -1.19532599 52.65696957 4.5625 59.4375 C8.34946245 63.90767733 11.5782444 68.54828546 14.6875 73.5 C15.11264893 74.16999023 15.53779785 74.83998047 15.97583008 75.53027344 C21.79951157 84.97153593 22.44851431 94.30682279 21.25 105.1875 C20.12959978 109.5729292 18.51199441 113.27713732 16.25 117.1875 C15.8271875 117.92226563 15.404375 118.65703125 14.96875 119.4140625 C9.73904494 127.28902535 1.09694535 133.14032111 -7.75 136.1875 C-10.9710276 136.5893008 -14.13264986 136.60809555 -17.375 136.5625 C-18.20773437 136.57410156 -19.04046875 136.58570313 -19.8984375 136.59765625 C-20.70796875 136.59378906 -21.5175 136.58992187 -22.3515625 136.5859375 C-23.07682129 136.58255371 -23.80208008 136.57916992 -24.54931641 136.57568359 C-27.55495401 136.04551233 -29.36877719 135.096035 -31.75 133.1875 C-32.31762695 130.7355957 -32.31762695 130.7355957 -32.23828125 127.86328125 C-32.22216797 126.83525391 -32.20605469 125.80722656 -32.18945312 124.74804688 C-32.14755859 123.67619141 -32.10566406 122.60433594 -32.0625 121.5 C-32.03994141 120.41654297 -32.01738281 119.33308594 -31.99414062 118.21679688 C-31.9351579 115.53898095 -31.85290307 112.86392973 -31.75 110.1875 C-30.73679687 110.15011719 -29.72359375 110.11273438 -28.6796875 110.07421875 C-27.32809061 110.00851612 -25.97652971 109.94207029 -24.625 109.875 C-23.95984375 109.85244141 -23.2946875 109.82988281 -22.609375 109.80664062 C-16.79798626 109.49328143 -12.75658794 107.93006321 -8.375 104.125 C-5.99064754 99.8148244 -5.9993661 96.01855882 -6.75 91.1875 C-8.28495687 87.76924473 -10.37035176 84.91762753 -12.625 81.9375 C-13.21273193 81.11975098 -13.80046387 80.30200195 -14.40600586 79.45947266 C-16.16548956 77.01856766 -17.95357843 74.60129905 -19.75 72.1875 C-21.61351359 69.6525516 -23.46807315 67.11136842 -25.3125 64.5625 C-25.72153564 63.99756836 -26.13057129 63.43263672 -26.55200195 62.85058594 C-33.84280481 52.6047119 -35.74945766 42.68796323 -34.75 30.1875 C-32.60551066 20.03873836 -26.6710878 10.56258545 -18.125 4.625 C-12.22804859 0.93118471 -6.92749841 -0.0752989 0 0 Z " fill="#020202" transform="translate(357.75,190.8125)"/>
<path d="M0 0 C3.62493334 -0.05787784 7.24974857 -0.0935542 10.875 -0.125 C11.90753906 -0.14175781 12.94007813 -0.15851563 14.00390625 -0.17578125 C14.99003906 -0.18222656 15.97617187 -0.18867188 16.9921875 -0.1953125 C18.35899658 -0.21102295 18.35899658 -0.21102295 19.75341797 -0.22705078 C22 0 22 0 24 2 C24.25168228 4.27076721 24.25168228 4.27076721 24.25396729 7.16235352 C24.25960693 8.25605255 24.26524658 9.34975159 24.27105713 10.47659302 C24.26700867 11.68185638 24.26296021 12.88711975 24.25878906 14.12890625 C24.2622937 15.39394989 24.26579834 16.65899353 24.26940918 17.96237183 C24.27854577 21.43752223 24.27498376 24.91255421 24.26865101 28.38770676 C24.26359756 32.01962358 24.26828063 35.65153006 24.27142334 39.28344727 C24.2750649 45.38331936 24.27025892 51.48314306 24.26074219 57.58300781 C24.24985725 64.64147983 24.25338269 71.69983633 24.264395 78.75830555 C24.27346248 84.81184028 24.27475581 90.86534018 24.26951766 96.91887951 C24.26639498 100.53733909 24.26599675 104.15574432 24.27259064 107.77420044 C24.27942513 111.80656815 24.26996019 115.83873577 24.25878906 119.87109375 C24.26283752 121.07635712 24.26688599 122.28162048 24.27105713 123.52340698 C24.26541748 124.61710602 24.25977783 125.71080505 24.25396729 126.83764648 C24.25321323 127.79186996 24.25245918 128.74609344 24.25168228 129.72923279 C24 132 24 132 22 134 C18.51946051 134.45027679 15.00633808 134.32407972 11.5 134.3125 C10.52417969 134.32861328 9.54835938 134.34472656 8.54296875 134.36132812 C7.61097656 134.36197266 6.67898438 134.36261719 5.71875 134.36328125 C4.86216797 134.36626221 4.00558594 134.36924316 3.12304688 134.37231445 C2.42244141 134.24945068 1.72183594 134.12658691 1 134 C-1.22144065 130.66783902 -1.24947396 129.63758079 -1.24723816 125.75535583 C-1.25143265 124.66869629 -1.25562714 123.58203674 -1.25994873 122.46244812 C-1.25432922 121.27013077 -1.24870972 120.07781342 -1.24291992 118.84936523 C-1.24481827 117.59392914 -1.24671661 116.33849304 -1.24867249 115.04501343 C-1.25352202 111.60090338 -1.24586418 108.15692279 -1.23571944 104.7128284 C-1.22694192 101.11161872 -1.22869632 97.51041314 -1.2290802 93.90919495 C-1.2281435 87.86237417 -1.21945825 81.81560357 -1.20581055 75.76879883 C-1.19007787 68.7722486 -1.18481269 61.7757533 -1.1855461 54.77918667 C-1.1861559 48.05425594 -1.18105533 41.32934314 -1.17275429 34.6044178 C-1.1692188 31.73962324 -1.16739066 28.87483502 -1.16686058 26.01003838 C-1.16567194 22.01375248 -1.15596966 18.01751252 -1.14526367 14.02124023 C-1.14571686 12.82689865 -1.14617004 11.63255707 -1.14663696 10.40202332 C-1.14237198 9.31818359 -1.13810699 8.23434387 -1.13371277 7.11766052 C-1.13203692 6.1721102 -1.13036108 5.22655989 -1.12863445 4.25235653 C-1 2 -1 2 0 0 Z " fill="#010101" transform="translate(281,192)"/>
</svg>
